<svg width="66" height="58" viewBox="0 0 66 58" fill="none" xmlns="http://www.w3.org/2000/svg">
<path d="M46.787 11.0432L44.208 17.5107C43.4775 19.3424 44.8267 21.333 46.7987 21.333H58.8944C63.3034 21.333 66.4981 25.5363 65.3177 29.7844L60.1909 48.2358C58.5875 54.0063 53.3333 57.9996 47.3442 57.9996H31.8247C29.3912 57.9996 27.0041 57.3336 24.9221 56.0738L20.7634 53.5575C18.1478 51.9748 16.1989 49.5716 15.166 46.7902V51.3333C15.166 53.1743 13.945 54.6667 12.4387 54.6667H2.89329C1.38706 54.6667 0.166016 53.1743 0.166016 51.3333V18C0.166016 16.159 1.38706 14.6667 2.89329 14.6667H12.4387C13.945 14.6667 15.166 16.1591 15.166 18V23.231C16.0217 20.9261 17.5092 18.8727 19.5016 17.3296L22.9402 14.6663L35.571 2.43965C36.3184 1.7162 37.2527 1.21546 38.2689 0.993684C44.1098 -0.280983 49.0015 5.49016 46.787 11.0432Z" fill="#EF0000"/>
</svg>
