<svg width="32" height="32" viewBox="0 0 32 32" fill="none" xmlns="http://www.w3.org/2000/svg">
<path d="M23.0032 17.7728C21.9405 17.1655 20.6446 17.1295 19.5499 17.6769L19.0236 17.94C17.1204 18.8916 14.8803 18.8916 12.9771 17.9401L12.4508 17.6769C11.356 17.1295 10.0601 17.1655 8.99743 17.7728L8.58346 18.0093C7.84118 18.4335 7.01768 18.6472 6.19455 18.6534L6.77928 23.6235C7.09527 26.3095 9.37162 28.3337 12.0761 28.3337L12.3334 28.3337V24.3337C12.3334 22.3087 13.975 20.6671 16.0001 20.6671C18.0251 20.6671 19.6667 22.3087 19.6667 24.3337V28.3337L20.5908 28.3337C23.2952 28.3337 25.5716 26.3095 25.8876 23.6235L26.4771 18.6122C25.4377 18.7481 24.3617 18.549 23.4172 18.0093L23.0032 17.7728Z" fill="white"/>
<path d="M17.6667 28.3337V24.3337C17.6667 23.4132 16.9205 22.6671 16.0001 22.6671C15.0796 22.6671 14.3334 23.4132 14.3334 24.3337V28.3337H17.6667Z" fill="white"/>
<path d="M18.9271 4.15482L17.3153 3.88619C16.4445 3.74106 15.5557 3.74106 14.6849 3.88619L13.053 4.15819L12.9936 4.75032L11.6589 14.9191L11.6583 14.9242L11.5905 15.4622L12.4224 15.8781C14.6746 17.0042 17.3256 17.0042 19.5778 15.8781L20.4097 15.4622L20.342 14.9242L20.3413 14.9191L19.0086 4.7655L18.9271 4.15482Z" fill="white"/>
<path d="M22.4476 15.637L24.9668 17.0765C25.6001 17.4384 26.3835 17.4114 26.9904 17.0068C27.6074 16.5955 27.9334 15.8664 27.8285 15.1323L26.8354 8.18064C26.7281 7.42959 26.306 6.7598 25.6747 6.33896L23.3386 4.78153C22.9005 4.48949 22.3859 4.33366 21.8594 4.33366H20.9687L20.9916 4.50523L22.3256 14.6691L22.4476 15.637Z" fill="white"/>
<path d="M9.55267 15.637L9.67463 14.6691L9.67529 14.664L11.0066 4.52041L11.0254 4.33366H10.1409C9.61439 4.33366 9.0997 4.4895 8.66166 4.78153L6.3255 6.33896C5.69425 6.7598 5.27213 7.42959 5.16484 8.18064L4.17175 15.1323C4.06688 15.8664 4.39287 16.5955 5.00989 17.0068C5.61677 17.4114 6.40015 17.4384 7.03343 17.0765L9.55267 15.637Z" fill="white"/>
</svg>
