<svg width="32" height="32" viewBox="0 0 32 32" fill="none" xmlns="http://www.w3.org/2000/svg">
<path d="M18.6667 5.33301H9.33333C6.38781 5.33301 4 7.72082 4 10.6663V17.3181C4 19.5355 5.79753 21.333 8.0149 21.333C8.99154 21.333 9.93415 21.689 10.6667 22.3334V15.9997C10.6667 13.7905 12.4575 11.9997 14.6667 11.9997H24V10.6663C24 7.72082 21.6122 5.33301 18.6667 5.33301Z" fill="white"/>
<path fill-rule="evenodd" clip-rule="evenodd" d="M25.3333 13.333H14.6667C13.1939 13.333 12 14.5269 12 15.9997V22.9211C12 24.695 13.438 26.133 15.2119 26.133C16.0054 26.133 16.7708 26.4267 17.3606 26.9575L18.2161 27.7275C19.2302 28.6402 20.7698 28.6402 21.7839 27.7275L22.6394 26.9575C23.2292 26.4267 23.9946 26.133 24.7881 26.133C26.562 26.133 28 24.695 28 22.9211V15.9997C28 14.5269 26.8061 13.333 25.3333 13.333ZM17 20.333C17 20.8853 16.5523 21.333 16 21.333C15.4477 21.333 15 20.8853 15 20.333C15 19.7807 15.4477 19.333 16 19.333C16.5523 19.333 17 19.7807 17 20.333ZM20 21.333C20.5523 21.333 21 20.8853 21 20.333C21 19.7807 20.5523 19.333 20 19.333C19.4477 19.333 19 19.7807 19 20.333C19 20.8853 19.4477 21.333 20 21.333ZM25 20.333C25 20.8853 24.5523 21.333 24 21.333C23.4477 21.333 23 20.8853 23 20.333C23 19.7807 23.4477 19.333 24 19.333C24.5523 19.333 25 19.7807 25 20.333Z" fill="white"/>
</svg>
