<svg width="16" height="17" viewBox="0 0 16 17" fill="none" xmlns="http://www.w3.org/2000/svg">
<path d="M2 2.66699C1.72386 2.66699 1.5 2.89085 1.5 3.16699C1.5 3.44313 1.72386 3.66699 2 3.66699C2.5447 3.66699 3.01632 4.04531 3.13448 4.57704L3.42111 5.86685C3.42319 5.89817 3.42824 5.92948 3.43633 5.96038L3.47293 6.10007L3.51191 6.27546C3.51957 6.30993 3.53062 6.34278 3.54463 6.37373L4.66141 10.6362C5.02632 12.029 6.28488 13.0003 7.72468 13.0003H11.1671C12.916 13.0003 14.3337 11.5826 14.3337 9.83366V8.02744C14.3337 7.65153 14.2795 7.19797 14.0245 6.7978C13.4505 5.89739 12.4493 5.33366 11.3542 5.33366H4.32701L4.11067 4.36011C3.89083 3.37084 3.0134 2.66699 2 2.66699Z" fill="#323232"/>
<path d="M12 14.5003C12 14.8685 11.7015 15.167 11.3333 15.167C10.9651 15.167 10.6667 14.8685 10.6667 14.5003C10.6667 14.1321 10.9651 13.8337 11.3333 13.8337C11.7015 13.8337 12 14.1321 12 14.5003Z" fill="#323232"/>
<path d="M6 15.167C6.36819 15.167 6.66667 14.8685 6.66667 14.5003C6.66667 14.1321 6.36819 13.8337 6 13.8337C5.63181 13.8337 5.33333 14.1321 5.33333 14.5003C5.33333 14.8685 5.63181 15.167 6 15.167Z" fill="#323232"/>
</svg>
