<svg width="16" height="17" viewBox="0 0 16 17" fill="none" xmlns="http://www.w3.org/2000/svg">
<path d="M7.99992 2C8.27606 2 8.49992 2.22386 8.49992 2.5V3.16667C8.49992 3.44281 8.27606 3.66667 7.99992 3.66667C7.72378 3.66667 7.49992 3.44281 7.49992 3.16667V2.5C7.49992 2.22386 7.72378 2 7.99992 2Z" fill="#B5B5B5"/>
<path d="M11.9999 8.5C11.9999 10.7091 10.2091 12.5 7.99992 12.5C5.79078 12.5 3.99992 10.7091 3.99992 8.5C3.99992 6.29086 5.79078 4.5 7.99992 4.5C10.2091 4.5 11.9999 6.29086 11.9999 8.5Z" fill="#B5B5B5"/>
<path d="M8.49992 13.8333C8.49992 13.5572 8.27606 13.3333 7.99992 13.3333C7.72378 13.3333 7.49992 13.5572 7.49992 13.8333V14.5C7.49992 14.7761 7.72378 15 7.99992 15C8.27606 15 8.49992 14.7761 8.49992 14.5V13.8333Z" fill="#B5B5B5"/>
<path d="M13.7663 5.27669C13.9043 5.51584 13.8224 5.82163 13.5833 5.95971L13.0059 6.29304C12.7668 6.43111 12.461 6.34917 12.3229 6.11003C12.1848 5.87088 12.2668 5.56508 12.5059 5.42701L13.0833 5.09368C13.3224 4.95561 13.6282 5.03755 13.7663 5.27669Z" fill="#B5B5B5"/>
<path d="M2.41659 5.95971C2.17744 5.82163 2.0955 5.51584 2.23357 5.27669C2.37165 5.03755 2.67744 4.95561 2.91659 5.09368L3.49394 5.42701C3.73308 5.56508 3.81502 5.87088 3.67695 6.11003C3.53888 6.34917 3.23308 6.43111 2.99394 6.29304L2.41659 5.95971Z" fill="#B5B5B5"/>
<path d="M2.23357 11.8167C2.0955 11.5776 2.17744 11.2718 2.41659 11.1337L2.99394 10.8004C3.23308 10.6623 3.53888 10.7443 3.67695 10.9834C3.81502 11.2225 3.73308 11.5283 3.49394 11.6664L2.91659 11.9997C2.67744 12.1378 2.37165 12.0559 2.23357 11.8167Z" fill="#B5B5B5"/>
<path d="M13.5833 11.1337C13.8224 11.2718 13.9043 11.5776 13.7663 11.8167C13.6282 12.0559 13.3224 12.1378 13.0833 11.9997L12.5059 11.6664C12.2668 11.5283 12.1848 11.2225 12.3229 10.9834C12.461 10.7443 12.7668 10.6623 13.0059 10.8004L13.5833 11.1337Z" fill="#B5B5B5"/>
</svg>
