<svg width="166" height="67" viewBox="0 0 166 67" fill="none" xmlns="http://www.w3.org/2000/svg">
<g clip-path="url(#clip0_378_973)">
<path d="M28.6123 48.0039H25.3423V58.3156H28.6123V48.0039Z" fill="#EF0000"/>
<path d="M16.5645 48.0039H13.2944V58.3156H16.5645V48.0039Z" fill="#EF0000"/>
<path d="M22.5884 0H19.3184V4.36245H22.5884V0Z" fill="#EF0000"/>
<path d="M22.5884 48.0039H19.3184V67.0005H22.5884V48.0039Z" fill="#EF0000"/>
<path d="M0 28.6968C0 37.9443 7.29401 45.4521 16.619 45.8193V40.6023C13.016 38.547 11.4036 33.1487 11.4036 28.6968C11.4036 24.2449 13.016 18.8465 16.619 16.7913V11.5742C7.29401 11.9415 0 19.4492 0 28.6968ZM12.7021 15.5671L12.9922 15.4682L12.7758 15.6848C9.91244 18.5523 8.13352 23.5386 8.13352 28.6991C8.13352 33.8597 9.91244 38.846 12.7758 41.7135L12.9922 41.9301L12.7021 41.8289C7.06095 39.8819 3.27006 34.6036 3.27006 28.6991C3.27006 22.7946 7.06095 17.5164 12.7021 15.5694V15.5671Z" fill="#EF0000"/>
<path d="M25.2876 11.5766V16.7936C28.8906 18.8489 30.503 24.2472 30.503 28.6991C30.503 33.1511 28.8906 38.5494 25.2876 40.6023V45.8193C34.6126 45.4521 41.9042 37.9467 41.9042 28.6968C41.9042 19.4469 34.6102 11.9415 25.2876 11.5742V11.5766ZM29.2022 41.8289L28.912 41.9301L29.1284 41.7135C31.9918 38.846 33.7707 33.8597 33.7707 28.6991C33.7707 23.5386 31.9918 18.5499 29.1284 15.6848L28.912 15.4682L29.2022 15.5671C34.8433 17.5164 38.6342 22.7923 38.6342 28.6968C38.6342 34.6013 34.8433 39.8795 29.2022 41.8265V41.8289Z" fill="#EF0000"/>
<path d="M12.8281 9.50274H19.3183V45.822H22.5884V9.50274H29.0785V6.26562H12.8281V9.50274Z" fill="#EF0000"/>
<path d="M52.856 42.2079H58.8562V58.3299H63.2036V42.2079H69.1729V38.248H52.856V42.2079Z" fill="white"/>
<path d="M86.4912 39.2524C84.8954 38.3719 83.0856 37.9316 81.057 37.9316C79.0283 37.9316 77.1876 38.3719 75.5942 39.2524C74.0008 40.1329 72.757 41.3618 71.8699 42.9392C70.9804 44.5165 70.5381 46.301 70.5381 48.2904C70.5381 50.2798 70.9876 52.0925 71.8842 53.6699C72.7831 55.2473 74.0341 56.4762 75.637 57.3567C77.2399 58.2372 79.0664 58.6774 81.114 58.6774C83.1617 58.6774 84.9263 58.2372 86.5197 57.3567C88.1132 56.4762 89.3546 55.2473 90.244 53.6699C91.1335 52.0925 91.5758 50.308 91.5758 48.3187C91.5758 46.3293 91.1264 44.5165 90.2298 42.9392C89.3308 41.3618 88.0846 40.1329 86.4912 39.2524ZM86.3461 51.617C85.8348 52.5916 85.1237 53.3521 84.2152 53.8983C83.3068 54.4421 82.2746 54.7152 81.114 54.7152C79.9535 54.7152 78.8809 54.4421 77.9558 53.8983C77.0283 53.3521 76.3029 52.594 75.7821 51.617C75.2612 50.6423 74.9996 49.5429 74.9996 48.3187C74.9996 47.0944 75.2612 45.9667 75.7821 44.9897C76.3029 44.0151 77.0187 43.2546 77.9272 42.7084C78.8357 42.1623 79.8679 41.8915 81.0284 41.8915C82.189 41.8915 83.2544 42.1646 84.1724 42.7084C85.0904 43.2546 85.811 44.0127 86.3319 44.9897C86.8527 45.9644 87.1143 47.0756 87.1143 48.3187C87.1143 49.5617 86.8575 50.6423 86.3461 51.617Z" fill="white"/>
<path d="M112.09 51.6179L108.385 38.248H107.95H104.444H104.037L100.358 51.8816L96.5033 38.248H92.0679L98.011 58.3299H98.6175H102.182H102.561L106.192 44.7976L109.805 58.3299H110.183H113.95H114.354L120.354 38.248H115.891L112.09 51.6179Z" fill="white"/>
<path d="M136.526 51.0152L127.194 38.248H122.616V58.3299H126.992V45.2473L136.526 58.3299H140.902V38.248H136.526V51.0152Z" fill="white"/>
<path d="M143.307 45.219H146.468L149.452 38.248H145.134L143.307 45.219Z" fill="white"/>
<path d="M160.668 46.712L157.885 46.0222C157.169 45.8503 156.625 45.5914 156.247 45.2476C155.871 44.9039 155.681 44.4637 155.681 43.9269C155.681 43.2206 155.928 42.6603 156.42 42.2483C156.913 41.8363 157.595 41.6315 158.463 41.6315C159.331 41.6315 159.992 41.841 160.563 42.2624C161.134 42.6839 161.524 43.1994 161.738 43.8115L165.997 42.5497C165.61 41.5373 165.079 40.6851 164.404 39.9976C163.729 39.3078 162.906 38.7875 161.94 38.4344C160.972 38.0813 159.843 37.9023 158.549 37.9023C156.211 37.9023 154.404 38.4391 153.129 39.5079C151.854 40.5791 151.214 42.0812 151.214 44.0117C151.214 45.4666 151.654 46.679 152.534 47.6561C153.412 48.6307 154.634 49.3205 156.199 49.7207L158.953 50.4105C159.764 50.6012 160.382 50.8979 160.808 51.3005C161.231 51.703 161.445 52.1715 161.445 52.706C161.445 53.3934 161.155 53.9396 160.575 54.3422C159.995 54.7424 159.262 54.9449 158.373 54.9449C157.524 54.926 156.803 54.7047 156.213 54.2857C155.624 53.8643 155.215 53.3393 154.981 52.7083L150.663 53.9419C150.836 54.7848 151.295 55.564 152.04 56.2797C152.784 56.9978 153.726 57.5746 154.865 58.0148C156.004 58.4551 157.231 58.674 158.544 58.674C160.109 58.674 161.45 58.4315 162.573 57.9418C163.693 57.4545 164.542 56.7553 165.122 55.8465C165.702 54.9378 165.993 53.8713 165.993 52.6471C165.993 51.2699 165.519 50.0362 164.573 48.9462C163.626 47.8562 162.323 47.1099 160.661 46.7096L160.668 46.712Z" fill="white"/>
<path d="M67.9267 24.8589C67.4059 25.9678 66.7138 26.8342 65.8553 27.4557C64.9968 28.0772 63.986 28.388 62.8278 28.388C61.6696 28.388 60.7064 28.1149 59.8289 27.571C58.9489 27.0249 58.2592 26.2668 57.7574 25.2898C57.2533 24.3151 57.0035 23.2062 57.0035 21.9608C57.0035 20.7154 57.2509 19.6089 57.7432 18.6343C58.2355 17.6596 58.918 16.8992 59.7861 16.353C60.6565 15.8068 61.6411 15.536 62.7422 15.536C63.8433 15.536 64.9016 15.8421 65.8006 16.4542C66.6996 17.0663 67.3892 17.8974 67.872 18.9497L71.9578 17.516C71.2229 15.7362 70.0338 14.3024 68.3928 13.2124C66.7495 12.1224 64.8659 11.5762 62.7422 11.5762C60.7706 11.5762 59.0131 12.0164 57.4673 12.8969C55.9214 13.7774 54.7133 15.0063 53.8453 16.5837C52.9748 18.161 52.542 19.955 52.542 21.9632C52.542 23.9714 52.9772 25.7653 53.8453 27.3427C54.7157 28.92 55.9214 30.149 57.4673 31.0295C59.0131 31.91 60.7802 32.3502 62.7707 32.3502C64.8969 32.3502 66.7852 31.7946 68.4357 30.6857C70.0885 29.5769 71.28 28.1125 72.0149 26.2974L67.9291 24.8636L67.9267 24.8589Z" fill="white"/>
<path d="M79.0854 23.7392H87.9253V32.0027H92.3012V11.9208H87.9253V19.7817H79.0854V11.8926H74.7095V32.0027H79.0854V23.7392Z" fill="white"/>
<path d="M101.372 11.9199H96.9956V32.0018H101.372V11.9199Z" fill="white"/>
<path d="M110.442 18.9191L119.979 32.0018H124.355V11.9199H119.979V24.6871L110.647 11.9199H106.066V32.0018H110.442V18.9191Z" fill="white"/>
<path d="M147.162 32.0018L139.25 11.9199H134.583L126.643 32.0018H131.252L132.536 28.6446H141.271L142.555 32.0018H147.164H147.162ZM133.994 24.8284L136.902 17.2241L139.811 24.8284H133.994Z" fill="white"/>
</g>
<defs>
<clipPath id="clip0_378_973">
<rect width="166" height="67" fill="white"/>
</clipPath>
</defs>
</svg>
