<svg width="32" height="32" viewBox="0 0 32 32" fill="none" xmlns="http://www.w3.org/2000/svg">
<path d="M23.1426 11.8861C24.332 11.2778 27.3776 9.55362 27.8982 7.60846C28.3683 5.85203 27.1752 4.02704 25.1549 4.00082C25.1132 4.00028 25.0709 4 25.028 4C24.2147 4 23.4886 4.35843 23.0629 4.62343C22.8304 4.76821 22.5036 4.76821 22.271 4.62343C21.8454 4.35843 21.1193 4 20.306 4C20.2631 4 20.2208 4.00028 20.1791 4.00082C18.1588 4.02704 16.9657 5.85203 17.4358 7.60846C17.9564 9.55362 21.002 11.2778 22.1914 11.8861C22.4885 12.038 22.8455 12.038 23.1426 11.8861Z" fill="white"/>
<path d="M2.66699 12V25.3333C2.66699 26.0697 3.15541 26.6667 3.7579 26.6667H7.57608C8.17858 26.6667 8.66699 26.0697 8.66699 25.3333V23.4864C9.01843 23.6798 9.45983 23.7123 9.86615 23.5069C10.3643 23.255 10.9624 23.3621 11.4285 23.6692C15.1983 26.1528 25.5055 26.6108 28.9378 19.6699C30.1275 17.2641 28.523 17.6833 25.6283 18.4395C23.5929 18.9713 20.9197 19.6697 18.1314 19.6699C17.4491 19.67 11.4156 18.6659 20.1576 16.2549L20.3074 16.2134C21.9083 15.7685 21.9404 14.2646 20.2789 14.2441C19.5229 14.2347 18.6651 14.3433 17.8262 14.4494C16.7041 14.5913 15.6159 14.729 14.8503 14.5748C14.5124 14.5067 14.21 14.3353 13.9068 14.1635C13.7043 14.0487 13.5014 13.9337 13.2873 13.8491C12.1335 13.3932 11.0988 13.2688 10.2127 13.3624C9.54208 13.4333 9.02925 13.7858 8.66699 14.2888V12C8.66699 11.2636 8.17858 10.6667 7.57608 10.6667H3.7579C3.15541 10.6667 2.66699 11.2636 2.66699 12Z" fill="white"/>
</svg>
