<svg width="16" height="16" viewBox="0 0 16 16" fill="none" xmlns="http://www.w3.org/2000/svg">
<path fill-rule="evenodd" clip-rule="evenodd" d="M7.99992 14.6666C11.6818 14.6666 14.6666 11.6818 14.6666 7.99992C14.6666 4.31802 11.6818 1.33325 7.99992 1.33325C4.31802 1.33325 1.33325 4.31802 1.33325 7.99992C1.33325 11.6818 4.31802 14.6666 7.99992 14.6666ZM7.31256 9.26779C7.31256 9.31342 7.34955 9.35041 7.39518 9.35041H8.26331C8.30893 9.35041 8.34592 9.31342 8.34592 9.26779C8.34799 9.04324 8.37385 8.8547 8.4235 8.70217C8.47522 8.54753 8.55384 8.41301 8.65934 8.29862C8.76692 8.18422 8.9045 8.07406 9.07207 7.96814C9.2624 7.85163 9.42686 7.71923 9.56547 7.57094C9.70408 7.42265 9.81063 7.25318 9.8851 7.06252C9.96165 6.87186 9.99992 6.65578 9.99992 6.41428C9.99992 6.05627 9.9151 5.74698 9.74546 5.48641C9.57789 5.22373 9.34308 5.02142 9.04104 4.87949C8.74106 4.73755 8.39351 4.66659 7.99837 4.66659C7.63633 4.66659 7.30532 4.73437 7.00535 4.86995C6.70744 5.00553 6.46746 5.2089 6.28541 5.48006C6.19752 5.61247 6.12986 5.76054 6.08242 5.92427C5.9949 6.22633 6.25923 6.49054 6.57371 6.49054H6.5858C6.87661 6.49054 7.08782 6.24113 7.2474 5.99801C7.33429 5.86667 7.4429 5.76922 7.57323 5.70567C7.70563 5.64 7.84528 5.60716 7.99216 5.60716C8.15146 5.60716 8.29524 5.64106 8.4235 5.70885C8.55384 5.77664 8.65728 5.87197 8.73382 5.99483C8.81037 6.1177 8.84864 6.26281 8.84864 6.43017C8.84864 6.57846 8.81968 6.71298 8.76175 6.83373C8.70382 6.95236 8.62418 7.0604 8.5228 7.15785C8.4235 7.25318 8.31075 7.34109 8.18456 7.42159C8.00044 7.5381 7.84424 7.66627 7.71598 7.80608C7.58771 7.94378 7.48841 8.12596 7.41807 8.35264C7.3498 8.57931 7.31463 8.88436 7.31256 9.26779ZM7.37152 11.1299C7.506 11.2655 7.66633 11.3333 7.85252 11.3333C7.97665 11.3333 8.08939 11.3025 8.19076 11.2411C8.2942 11.1775 8.37696 11.0928 8.43902 10.9869C8.50315 10.881 8.53522 10.7634 8.53522 10.6342C8.53522 10.4435 8.46695 10.2804 8.33041 10.1448C8.19594 10.0092 8.03664 9.94145 7.85252 9.94145C7.66633 9.94145 7.506 10.0092 7.37152 10.1448C7.23705 10.2804 7.16982 10.4435 7.16982 10.6342C7.16982 10.8291 7.23705 10.9943 7.37152 11.1299Z" fill="white"/>
</svg>
