<svg width="32" height="32" viewBox="0 0 32 32" fill="none" xmlns="http://www.w3.org/2000/svg">
<path d="M11.8103 6.32741L13.4099 5.43874C15.0207 4.54386 16.9793 4.54386 18.5901 5.43874L25.2568 9.14244C25.5 9.27759 25.73 9.43015 25.9455 9.59809L21.3663 12.3075L11.8103 6.32741Z" fill="white"/>
<path d="M10.0481 7.30642L6.74324 9.14244C6.40917 9.32804 6.10013 9.54649 5.81925 9.79249C5.82071 9.79329 5.82216 9.7941 5.82361 9.79492L13.789 14.2756C15.146 15.0389 16.8081 15.0156 18.1431 14.2146L18.1484 14.2114L19.4283 13.4541L10.4695 7.84769C10.2614 7.71746 10.1177 7.52318 10.0481 7.30642Z" fill="white"/>
<path d="M4.60007 11.3468C4.21236 12.0934 4 12.9336 4 13.8046V19.5283C4 21.4652 5.05009 23.2498 6.74324 24.1905L13.4099 27.8942C13.916 28.1754 14.4564 28.3682 15.0096 28.4727C15.0033 28.4271 15 28.3806 15 28.3333V16.766C14.2415 16.6555 13.498 16.4066 12.8085 16.0187L4.84306 11.5381C4.75018 11.4858 4.66887 11.421 4.60007 11.3468Z" fill="white"/>
<path d="M17 16.7383V28.3333C17 28.3806 16.9967 28.4271 16.9904 28.4727C17.5436 28.3682 18.084 28.1754 18.5901 27.8942L25.2568 24.1905C26.9499 23.2498 28 21.4652 28 19.5283V13.8046C28 12.8462 27.7429 11.925 27.2779 11.1249C27.2457 11.1497 27.2117 11.1728 27.1759 11.194L19.1721 15.9296L19.1693 15.9312C18.491 16.3378 17.7549 16.607 17 16.7383Z" fill="white"/>
</svg>
