<svg width="32" height="32" viewBox="0 0 32 32" fill="none" xmlns="http://www.w3.org/2000/svg">
<path d="M19.3333 14.6665C19.3333 16.5075 17.841 17.9998 16 17.9998C14.1591 17.9998 12.6667 16.5075 12.6667 14.6665C12.6667 12.8256 14.1591 11.3332 16 11.3332C17.841 11.3332 19.3333 12.8256 19.3333 14.6665Z" fill="white"/>
<path fill-rule="evenodd" clip-rule="evenodd" d="M17.9308 28.4024C23.106 25.5877 27.4059 20.5724 28 14.6665C28 8.03909 22.6274 2.6665 16 2.6665C9.37258 2.6665 4 8.03909 4 14.6665C4.59879 20.6192 8.45625 25.6671 14.0378 28.4689C15.2677 29.0863 16.7219 29.0599 17.9308 28.4024ZM21.3333 14.6665C21.3333 17.612 18.9455 19.9998 16 19.9998C13.0545 19.9998 10.6667 17.612 10.6667 14.6665C10.6667 11.721 13.0545 9.33317 16 9.33317C18.9455 9.33317 21.3333 11.721 21.3333 14.6665Z" fill="white"/>
</svg>
