<svg width="16" height="17" viewBox="0 0 16 17" fill="none" xmlns="http://www.w3.org/2000/svg">
<path d="M9.66667 7.83301C9.66667 8.75348 8.92048 9.49967 8 9.49967C7.07953 9.49967 6.33333 8.75348 6.33333 7.83301C6.33333 6.91253 7.07953 6.16634 8 6.16634C8.92048 6.16634 9.66667 6.91253 9.66667 7.83301Z" fill="#323232"/>
<path fill-rule="evenodd" clip-rule="evenodd" d="M8.96542 14.701C11.553 13.2936 13.703 10.7859 14 7.83301C14 4.5193 11.3137 1.83301 8 1.83301C4.68629 1.83301 2 4.5193 2 7.83301C2.2994 10.8094 4.22812 13.3333 7.0189 14.7342C7.63384 15.0429 8.36097 15.0297 8.96542 14.701ZM10.6667 7.83301C10.6667 9.30577 9.47276 10.4997 8 10.4997C6.52724 10.4997 5.33333 9.30577 5.33333 7.83301C5.33333 6.36025 6.52724 5.16634 8 5.16634C9.47276 5.16634 10.6667 6.36025 10.6667 7.83301Z" fill="#323232"/>
</svg>
