<svg width="166" height="67" viewBox="0 0 166 67" fill="none" xmlns="http://www.w3.org/2000/svg">
<g clip-path="url(#clip0_378_464)">
<path d="M28.6123 48.0034H25.3423V58.3151H28.6123V48.0034Z" fill="#EF0000"/>
<path d="M16.5645 48.0034H13.2944V58.3151H16.5645V48.0034Z" fill="#EF0000"/>
<path d="M22.5884 0H19.3184V4.36245H22.5884V0Z" fill="#EF0000"/>
<path d="M22.5884 48.0034H19.3184V67H22.5884V48.0034Z" fill="#EF0000"/>
<path d="M0 28.696C0 37.9436 7.29401 45.4513 16.619 45.8186V40.6016C13.016 38.5463 11.4036 33.148 11.4036 28.696C11.4036 24.2441 13.016 18.8458 16.619 16.7905V11.5735C7.29401 11.9408 0 19.4485 0 28.696ZM12.7021 15.5663L12.9922 15.4674L12.7758 15.684C9.91244 18.5515 8.13352 23.5379 8.13352 28.6984C8.13352 33.859 9.91244 38.8453 12.7758 41.7128L12.9922 41.9294L12.7021 41.8281C7.06095 39.8812 3.27006 34.6029 3.27006 28.6984C3.27006 22.7939 7.06095 17.5156 12.7021 15.5687V15.5663Z" fill="#EF0000"/>
<path d="M25.2876 11.5758V16.7929C28.8906 18.8482 30.503 24.2465 30.503 28.6984C30.503 33.1503 28.8906 38.5486 25.2876 40.6016V45.8186C34.6126 45.4513 41.9042 37.946 41.9042 28.696C41.9042 19.4461 34.6102 11.9408 25.2876 11.5735V11.5758ZM29.2022 41.8281L28.912 41.9294L29.1284 41.7128C31.9918 38.8453 33.7707 33.859 33.7707 28.6984C33.7707 23.5379 31.9918 18.5492 29.1284 15.684L28.912 15.4674L29.2022 15.5663C34.8433 17.5156 38.6342 22.7916 38.6342 28.696C38.6342 34.6005 34.8433 39.8788 29.2022 41.8258V41.8281Z" fill="#EF0000"/>
<path d="M12.8281 9.50176H19.3183V45.821H22.5884V9.50176H29.0785V6.26465H12.8281V9.50176Z" fill="#EF0000"/>
<path d="M52.856 42.2072H58.8562V58.3292H63.2036V42.2072H69.1729V38.2473H52.856V42.2072Z" fill="#323232"/>
<path d="M86.4912 39.2526C84.8954 38.3721 83.0856 37.9319 81.057 37.9319C79.0283 37.9319 77.1876 38.3721 75.5942 39.2526C74.0008 40.1331 72.757 41.362 71.8699 42.9394C70.9804 44.5168 70.5381 46.3013 70.5381 48.2906C70.5381 50.28 70.9876 52.0928 71.8842 53.6701C72.7831 55.2475 74.0341 56.4764 75.637 57.3569C77.2399 58.2374 79.0664 58.6777 81.114 58.6777C83.1617 58.6777 84.9263 58.2374 86.5197 57.3569C88.1132 56.4764 89.3546 55.2475 90.244 53.6701C91.1335 52.0928 91.5758 50.3083 91.5758 48.3189C91.5758 46.3295 91.1264 44.5168 90.2298 42.9394C89.3308 41.362 88.0846 40.1331 86.4912 39.2526ZM86.3461 51.6172C85.8348 52.5919 85.1237 53.3523 84.2152 53.8985C83.3068 54.4423 82.2746 54.7154 81.114 54.7154C79.9535 54.7154 78.8809 54.4423 77.9558 53.8985C77.0283 53.3523 76.3029 52.5942 75.7821 51.6172C75.2612 50.6426 74.9996 49.5431 74.9996 48.3189C74.9996 47.0947 75.2612 45.967 75.7821 44.99C76.3029 44.0153 77.0187 43.2549 77.9272 42.7087C78.8357 42.1625 79.8679 41.8918 81.0284 41.8918C82.189 41.8918 83.2544 42.1649 84.1724 42.7087C85.0904 43.2549 85.811 44.013 86.3319 44.99C86.8527 45.9646 87.1143 47.0758 87.1143 48.3189C87.1143 49.562 86.8575 50.6426 86.3461 51.6172Z" fill="#323232"/>
<path d="M112.09 51.6172L108.385 38.2473H107.95H104.444H104.037L100.358 51.8809L96.5033 38.2473H92.0679L98.011 58.3292H98.6175H102.182H102.561L106.192 44.7969L109.805 58.3292H110.183H113.95H114.354L120.354 38.2473H115.891L112.09 51.6172Z" fill="#323232"/>
<path d="M136.526 51.0145L127.194 38.2473H122.616V58.3292H126.992V45.2465L136.526 58.3292H140.902V38.2473H136.526V51.0145Z" fill="#323232"/>
<path d="M143.307 45.2183H146.468L149.452 38.2473H145.134L143.307 45.2183Z" fill="#323232"/>
<path d="M160.668 46.711L157.885 46.0212C157.169 45.8494 156.625 45.5904 156.247 45.2467C155.871 44.9029 155.681 44.4627 155.681 43.9259C155.681 43.2196 155.928 42.6593 156.42 42.2473C156.913 41.8353 157.595 41.6305 158.463 41.6305C159.331 41.6305 159.992 41.84 160.563 42.2615C161.134 42.6829 161.524 43.1985 161.738 43.8106L165.997 42.5487C165.61 41.5363 165.079 40.6841 164.404 39.9967C163.729 39.3069 162.906 38.7866 161.94 38.4334C160.972 38.0803 159.843 37.9014 158.549 37.9014C156.211 37.9014 154.404 38.4381 153.129 39.507C151.854 40.5782 151.214 42.0802 151.214 44.0107C151.214 45.4656 151.654 46.6781 152.534 47.6551C153.412 48.6297 154.634 49.3195 156.199 49.7198L158.953 50.4096C159.764 50.6003 160.382 50.8969 160.808 51.2995C161.231 51.7021 161.445 52.1706 161.445 52.705C161.445 53.3924 161.155 53.9386 160.575 54.3412C159.995 54.7414 159.262 54.9439 158.373 54.9439C157.524 54.925 156.803 54.7037 156.213 54.2847C155.624 53.8633 155.215 53.3383 154.981 52.7073L150.663 53.941C150.836 54.7838 151.295 55.5631 152.04 56.2788C152.784 56.9968 153.726 57.5736 154.865 58.0138C156.004 58.4541 157.231 58.673 158.544 58.673C160.109 58.673 161.45 58.4305 162.573 57.9409C163.693 57.4535 164.542 56.7543 165.122 55.8456C165.702 54.9368 165.993 53.8703 165.993 52.6461C165.993 51.2689 165.519 50.0352 164.573 48.9452C163.626 47.8552 162.323 47.1089 160.661 46.7087L160.668 46.711Z" fill="#323232"/>
<path d="M67.9267 24.8587C67.4059 25.9675 66.7138 26.8339 65.8553 27.4554C64.9968 28.077 63.986 28.3877 62.8278 28.3877C61.6696 28.3877 60.7064 28.1146 59.8289 27.5708C58.9489 27.0246 58.2592 26.2665 57.7574 25.2895C57.2533 24.3149 57.0035 23.206 57.0035 21.9606C57.0035 20.7152 57.2509 19.6087 57.7432 18.634C58.2355 17.6593 58.918 16.8989 59.7861 16.3527C60.6565 15.8065 61.6411 15.5358 62.7422 15.5358C63.8433 15.5358 64.9016 15.8419 65.8006 16.454C66.6996 17.0661 67.3892 17.8971 67.872 18.9495L71.9578 17.5157C71.2229 15.7359 70.0338 14.3022 68.3928 13.2121C66.7495 12.1221 64.8659 11.5759 62.7422 11.5759C60.7706 11.5759 59.0131 12.0162 57.4673 12.8967C55.9214 13.7772 54.7133 15.0061 53.8453 16.5834C52.9748 18.1608 52.542 19.9548 52.542 21.9629C52.542 23.9711 52.9772 25.7651 53.8453 27.3424C54.7157 28.9198 55.9214 30.1487 57.4673 31.0292C59.0131 31.9097 60.7802 32.35 62.7707 32.35C64.8969 32.35 66.7852 31.7943 68.4357 30.6855C70.0885 29.5766 71.28 28.1123 72.0149 26.2971L67.9291 24.8634L67.9267 24.8587Z" fill="#323232"/>
<path d="M79.0854 23.738H87.9253V32.0015H92.3012V11.9196H87.9253V19.7805H79.0854V11.8914H74.7095V32.0015H79.0854V23.738Z" fill="#323232"/>
<path d="M101.372 11.9197H96.9956V32.0015H101.372V11.9197Z" fill="#323232"/>
<path d="M110.442 18.9189L119.979 32.0015H124.355V11.9197H119.979V24.6869L110.647 11.9197H106.066V32.0015H110.442V18.9189Z" fill="#323232"/>
<path d="M147.162 32.0015L139.25 11.9197H134.583L126.643 32.0015H131.252L132.536 28.6444H141.271L142.555 32.0015H147.164H147.162ZM133.994 24.8281L136.902 17.2238L139.811 24.8281H133.994Z" fill="#323232"/>
</g>
<defs>
<clipPath id="clip0_378_464">
<rect width="166" height="67" fill="white"/>
</clipPath>
</defs>
</svg>
