<svg width="32" height="32" viewBox="0 0 32 32" fill="none" xmlns="http://www.w3.org/2000/svg">
<path fill-rule="evenodd" clip-rule="evenodd" d="M15.0633 3.01769L7.06334 6.01769C6.02254 6.40799 5.33301 7.40277 5.33301 8.51435L5.33301 15.9999C5.33304 20.7446 12.0034 25.4894 14.7944 27.267C15.5411 27.7426 16.4714 27.7647 17.2358 27.3182C20.0448 25.6774 26.6663 21.2525 26.6663 15.9999V8.51436C26.6663 7.40277 25.9768 6.40799 24.936 6.01769L16.936 3.01769C16.3323 2.7913 15.667 2.7913 15.0633 3.01769ZM20.0278 14.0521C20.425 13.6684 20.4359 13.0353 20.0522 12.6381C19.6685 12.2409 19.0354 12.23 18.6382 12.6137L15.1956 15.9396L13.3642 14.1552C12.9686 13.7697 12.3355 13.778 11.9501 14.1735C11.5647 14.5691 11.5729 15.2022 11.9685 15.5876L14.4948 18.0492C14.8819 18.4264 15.4987 18.4277 15.8875 18.0521L20.0278 14.0521Z" fill="white"/>
</svg>
