<svg width="16" height="16" viewBox="0 0 16 16" fill="none" xmlns="http://www.w3.org/2000/svg">
<path fill-rule="evenodd" clip-rule="evenodd" d="M3.99967 2.66699H11.9997C13.4724 2.66699 14.6663 3.8609 14.6663 5.33366V10.667C14.6663 12.1398 13.4724 13.3337 11.9997 13.3337H3.99967C2.52692 13.3337 1.33301 12.1398 1.33301 10.667V5.33366C1.33301 3.8609 2.52692 2.66699 3.99967 2.66699ZM4.39967 4.36699C4.23399 4.14608 3.92059 4.10131 3.69967 4.26699C3.47876 4.43268 3.43399 4.74608 3.59967 4.96699L5.46634 7.45588C6.73301 9.14477 9.26634 9.14477 10.533 7.45588L12.3997 4.96699C12.5654 4.74608 12.5206 4.43268 12.2997 4.26699C12.0788 4.10131 11.7654 4.14608 11.5997 4.36699L9.73301 6.85588C8.86634 8.01144 7.13301 8.01144 6.26634 6.85588L4.39967 4.36699Z" fill="#323232"/>
</svg>
