<svg width="164" height="37" viewBox="0 0 164 37" fill="none" xmlns="http://www.w3.org/2000/svg">
<path d="M23.3333 27.5022C27.3295 26.9898 30.5576 23.7253 31.0675 19.6809C31.2455 18.3005 31.1076 16.8972 30.6643 15.5793C30.221 14.2613 29.4843 13.064 28.5109 12.0796C27.5375 11.0953 26.3535 10.3502 25.0502 9.90193C23.7469 9.45366 22.3592 9.31415 20.9942 9.49417C16.9948 10.0098 13.7666 13.2743 13.26 17.3155C13.0819 18.6959 13.2199 20.0992 13.6632 21.4171C14.1065 22.7351 14.8432 23.9324 15.8166 24.9168C16.79 25.9011 17.974 26.6462 19.2773 27.0945C20.5806 27.5428 21.9682 27.6823 23.3333 27.5022ZM23.8782 1.5665C27.7256 1.97608 31.3173 3.7089 34.0528 6.47524C36.7884 9.24158 38.5019 12.8737 38.9069 16.7644C39.9617 27.528 31.0898 36.4998 20.4429 35.4331C16.5961 35.0229 13.0051 33.2897 10.2702 30.5235C7.53532 27.7572 5.82225 24.1254 5.41736 20.2352C4.36254 9.47162 13.2345 0.499812 23.8782 1.5665ZM47.9382 2.24003H72.575C73.5119 2.24003 74.0409 3.32284 73.4768 4.07693L56.4309 26.819H69.7865C72.2212 26.819 74.1365 29.0588 73.633 31.6111C73.2633 33.4834 71.5265 34.7596 69.64 34.7596H42.884C41.9566 34.7596 41.4308 33.6865 41.9885 32.942L59.0472 10.1806H48.0848C46.1982 10.1806 44.4614 8.90121 44.0918 7.03208C43.5851 4.47976 45.5035 2.24003 47.9382 2.24003ZM154.857 2.33027C157.4 1.78886 159.637 3.73533 159.637 6.21031V33.6123C159.637 34.5695 158.544 35.1012 157.805 34.5082L136.552 17.4573V30.7958C136.552 33.2707 134.315 35.2172 131.772 34.6758C129.949 34.2891 128.7 32.5714 128.7 30.6894V3.38407C128.7 2.42695 129.793 1.89521 130.532 2.48818L151.788 19.5391V6.31666C151.788 4.43464 153.04 2.72021 154.86 2.33027H154.857ZM99.5189 1.47949C112.53 1.47949 123.079 9.09779 123.079 18.495C123.079 27.8922 112.53 35.5105 99.5189 35.5105C86.5074 35.5105 75.9593 27.8922 75.9593 18.495C75.9593 9.09779 86.5074 1.47949 99.5189 1.47949ZM99.5189 9.42005C90.5291 9.42005 83.8114 14.2121 83.8114 18.495C83.8114 22.7779 90.5291 27.5699 99.5189 27.5699C108.509 27.5699 115.226 22.7811 115.226 18.495C115.226 14.2089 108.509 9.42005 99.5189 9.42005Z" fill="#005BFF"/>
</svg>
