<svg width="24" height="25" viewBox="0 0 24 25" fill="none" xmlns="http://www.w3.org/2000/svg">
<g clip-path="url(#clip0_378_514)">
<path d="M17 13.5C18.0609 13.5 19.0783 13.9214 19.8284 14.6716C20.5786 15.4217 21 16.4391 21 17.5C21 18.5609 20.5786 19.5783 19.8284 20.3284C19.0783 21.0786 18.0609 21.5 17 21.5C14.858 21.5 13 19.71 13 17.5H11C10.9996 18.4704 10.6465 19.4077 10.0063 20.137C9.36617 20.8664 8.48269 21.3382 7.5205 21.4644C6.55831 21.5907 5.58302 21.3629 4.77635 20.8234C3.96968 20.2839 3.38664 19.4696 3.13586 18.5321C2.88509 17.5946 2.98368 16.5979 3.41326 15.7278C3.84285 14.8576 4.57414 14.1732 5.47087 13.8023C6.36761 13.4313 7.36863 13.3989 8.28743 13.7113C9.20623 14.0236 9.98016 14.6594 10.465 15.5H13.535C13.886 14.8917 14.3911 14.3865 14.9993 14.0354C15.6076 13.6843 16.2977 13.4996 17 13.5ZM2 12.5V10.5H4V7.5C4 6.43913 4.42143 5.42172 5.17157 4.67157C5.92172 3.92143 6.93913 3.5 8 3.5H16C17.0609 3.5 18.0783 3.92143 18.8284 4.67157C19.5786 5.42172 20 6.43913 20 7.5V10.5H22V12.5H2Z" fill="#B5B5B5"/>
</g>
<defs>
<clipPath id="clip0_378_514">
<rect width="24" height="24" fill="white" transform="translate(0 0.5)"/>
</clipPath>
</defs>
</svg>
