<svg width="24" height="24" viewBox="0 0 24 24" fill="none" xmlns="http://www.w3.org/2000/svg">
<path fill-rule="evenodd" clip-rule="evenodd" d="M3.38172 10.914C8.74289 8.6371 12.3266 7.16545 14.1327 6.4435C19.2359 4.38874 20.2966 4.02777 20.9847 4C21.128 4 21.4721 4.02777 21.7014 4.19437C21.8734 4.33321 21.9308 4.52757 21.9595 4.66641C21.9881 4.80525 22.0168 5.11068 21.9881 5.36059C21.7014 8.16506 20.526 15.0235 19.8953 18.1612C19.6372 19.494 19.1212 19.9383 18.6338 19.9938C17.573 20.0771 16.7416 19.2997 15.7095 18.661C14.1041 17.6336 13.1866 16.995 11.6098 15.9954C9.80365 14.8292 10.9791 14.1905 12.0112 13.1631C12.2692 12.8855 16.9997 8.74817 17.0857 8.35943C17.0857 8.3039 17.1143 8.1373 16.9997 8.05399C16.885 7.97069 16.7416 7.99846 16.627 8.02623C16.4549 8.05399 13.8747 9.72002 8.85756 12.9965C8.11216 13.4963 7.45277 13.7185 6.85071 13.7185C6.19132 13.7185 4.92986 13.3575 3.98378 13.0521C2.837 12.6911 1.91958 12.4967 2.00559 11.8859C2.06293 11.5804 2.52164 11.2472 3.38172 10.914Z" fill="white"/>
</svg>
