<svg width="16" height="16" viewBox="0 0 16 16" fill="none" xmlns="http://www.w3.org/2000/svg">
<path fill-rule="evenodd" clip-rule="evenodd" d="M4.26499 12.0869L4.02671 6.60642C4.01177 6.2627 4.26067 5.96457 4.60225 5.92351C5.42096 5.8251 6.90855 5.66667 8.00034 5.66667C9.0805 5.66667 10.5481 5.82174 11.372 5.92035C11.7247 5.96255 11.9762 6.27772 11.9454 6.63154L11.4635 12.1733C11.3737 13.2068 10.5085 14 9.47106 14H6.2631C5.19232 14 4.3115 13.1566 4.26499 12.0869ZM5.50034 12C5.50034 11.7239 5.7242 11.5 6.00034 11.5H10.0003C10.2765 11.5 10.5003 11.7239 10.5003 12C10.5003 12.2761 10.2765 12.5 10.0003 12.5H6.00034C5.7242 12.5 5.50034 12.2761 5.50034 12Z" fill="#7589F4"/>
<path fill-rule="evenodd" clip-rule="evenodd" d="M4.47637 3.67098C4.5156 3.65483 4.55754 3.64345 4.60159 3.63763L4.62028 3.63517C5.05439 3.57786 5.42412 3.29149 5.58816 2.8855C5.92647 2.04817 6.73918 1.5 7.64227 1.5H8.5404C9.45562 1.5 10.2792 2.05553 10.6221 2.9041L10.6824 3.05333C10.8076 3.36327 11.0853 3.58558 11.4151 3.64C11.4534 3.64632 11.4899 3.65682 11.5243 3.67097C12.0486 3.71193 12.5087 3.75266 12.84 3.78339C13.0095 3.7991 13.1453 3.81221 13.239 3.8214L13.3467 3.8321L13.3848 3.83595C13.6595 3.86415 13.8593 4.1097 13.8311 4.3844C13.8029 4.6591 13.5569 4.85888 13.2822 4.83067L13.2467 4.82708L13.1413 4.81662C13.0492 4.80758 12.9152 4.79465 12.7476 4.77911C12.4126 4.74804 11.9441 4.7066 11.4109 4.66516C10.3408 4.58202 9.02344 4.5 8.00036 4.5C6.97727 4.5 5.65994 4.58202 4.58985 4.66516C4.05663 4.7066 3.58815 4.74804 3.25306 4.77911C3.08556 4.79465 2.95149 4.80758 2.85944 4.81662L2.754 4.82708L2.71809 4.83072C2.44339 4.85892 2.19784 4.6591 2.16964 4.3844C2.14143 4.1097 2.34198 3.86408 2.61667 3.83587L2.65398 3.8321L2.76175 3.8214C2.8554 3.81221 2.99126 3.7991 3.16072 3.78339C3.492 3.75266 3.95205 3.71194 4.47637 3.67098ZM7.64227 2.5C7.14681 2.5 6.70094 2.80074 6.51534 3.26012C6.47504 3.35984 6.42794 3.45561 6.37466 3.54693C6.94085 3.51858 7.50194 3.5 8.00036 3.5C8.55349 3.5 9.18382 3.52289 9.81264 3.5566C9.79205 3.51461 9.77288 3.4717 9.7552 3.42794L9.69491 3.27872C9.50476 2.8081 9.04798 2.5 8.5404 2.5H7.64227Z" fill="#7589F4"/>
</svg>
