<svg width="32" height="32" viewBox="0 0 32 32" fill="none" xmlns="http://www.w3.org/2000/svg">
<path d="M8.00033 2.66699H16.0003C17.4731 2.66699 18.667 3.8609 18.667 5.33366V16.0003C18.667 17.4731 17.4731 18.667 16.0003 18.667H5.33366C3.8609 18.667 2.66699 17.4731 2.66699 16.0003V14.0003H12.0003C13.1049 14.0003 14.0003 13.1049 14.0003 12.0003C14.0003 10.8958 13.1049 10.0003 12.0003 10.0003H8.00033C9.1049 10.0003 10.0003 9.1049 10.0003 8.00033C10.0003 6.89576 9.1049 6.00033 8.00033 6.00033H3.05467C3.84585 4.04577 5.76207 2.66699 8.00033 2.66699Z" fill="white"/>
<path d="M11.3337 28.667C13.1746 28.667 14.667 27.1746 14.667 25.3337C14.667 23.4927 13.1746 22.0003 11.3337 22.0003C9.49271 22.0003 8.00033 23.4927 8.00033 25.3337C8.00033 27.1746 9.49271 28.667 11.3337 28.667Z" fill="white"/>
<path d="M24.667 25.3337C24.667 27.1746 23.1746 28.667 21.3337 28.667C19.4927 28.667 18.0003 27.1746 18.0003 25.3337C18.0003 23.4927 19.4927 22.0003 21.3337 22.0003C23.1746 22.0003 24.667 23.4927 24.667 25.3337Z" fill="white"/>
<path d="M6.66699 20.0008H17.3337C18.8064 20.0008 20.0003 18.8069 20.0003 17.3341V5.50879C21.2386 5.8345 22.335 6.60006 23.0673 7.68727L23.6685 8.57982C23.2988 8.74076 22.9602 8.97075 22.677 9.23955C22.1122 9.7757 21.667 10.5627 21.667 11.4878V14.0006C21.667 16.9421 23.6683 19.6673 26.5188 19.6673H28.0003V21.3335C28.0003 22.8258 27.1831 24.1272 25.9718 24.8147C25.7137 22.4815 23.7356 20.6669 21.3337 20.6669C18.7563 20.6669 16.667 22.7562 16.667 25.3335H16.0003C16.0003 22.7562 13.911 20.6669 11.3337 20.6669C9.5045 20.6669 7.92114 21.7192 7.15601 23.2516C6.84425 22.6821 6.66699 22.0285 6.66699 21.3335V20.0008Z" fill="white"/>
<path d="M24.8003 10.334H24.85L27.5454 14.3355C27.8419 14.7757 28.0003 15.2944 28.0003 15.8253V17.6673H26.5188C25.1148 17.6673 23.667 16.2138 23.667 14.0006V11.4878C23.667 11.2234 23.7975 10.9335 24.0539 10.6901C24.3194 10.4381 24.6167 10.334 24.8003 10.334Z" fill="white"/>
<path d="M1.66699 8.00033C1.66699 7.44804 2.11471 7.00033 2.66699 7.00033H8.00033C8.55261 7.00033 9.00033 7.44804 9.00033 8.00033C9.00033 8.55261 8.55261 9.00033 8.00033 9.00033H2.66699C2.11471 9.00033 1.66699 8.55261 1.66699 8.00033Z" fill="white"/>
<path d="M2.66699 11.0003C2.11471 11.0003 1.66699 11.448 1.66699 12.0003C1.66699 12.5526 2.11471 13.0003 2.66699 13.0003H12.0003C12.5526 13.0003 13.0003 12.5526 13.0003 12.0003C13.0003 11.448 12.5526 11.0003 12.0003 11.0003H2.66699Z" fill="white"/>
</svg>
