<svg width="16" height="16" viewBox="0 0 16 16" fill="none" xmlns="http://www.w3.org/2000/svg">
<path d="M9.66667 7.33301C9.66667 8.25348 8.92048 8.99967 8 8.99967C7.07953 8.99967 6.33333 8.25348 6.33333 7.33301C6.33333 6.41253 7.07953 5.66634 8 5.66634C8.92048 5.66634 9.66667 6.41253 9.66667 7.33301Z" fill="#EF0000"/>
<path fill-rule="evenodd" clip-rule="evenodd" d="M8.96542 14.201C11.553 12.7936 13.703 10.2859 14 7.33301C14 4.0193 11.3137 1.33301 8 1.33301C4.68629 1.33301 2 4.0193 2 7.33301C2.2994 10.3094 4.22812 12.8333 7.0189 14.2342C7.63384 14.5429 8.36097 14.5297 8.96542 14.201ZM10.6667 7.33301C10.6667 8.80577 9.47276 9.99967 8 9.99967C6.52724 9.99967 5.33333 8.80577 5.33333 7.33301C5.33333 5.86025 6.52724 4.66634 8 4.66634C9.47276 4.66634 10.6667 5.86025 10.6667 7.33301Z" fill="#EF0000"/>
</svg>
