<svg width="226" height="27" viewBox="0 0 226 27" fill="none" xmlns="http://www.w3.org/2000/svg">
<g clip-path="url(#clip0_215_23773)">
<path d="M8.2268 26.5262L1.38672 0.615723H5.91596L11.1847 20.5105L16.8231 0.615723H21.0288L26.6673 20.6052L31.936 0.615723H36.419L29.5789 26.5262H24.3565L18.8567 7.19993L13.4031 26.5262H8.2268Z" fill="#BE11A5"/>
<path d="M39.5615 0.615723H43.8597V26.5262H39.5615V0.615723Z" fill="#BE11A5"/>
<path d="M52.9645 22.4526H63.3633V26.5262H48.7588V0.663086H52.9645V22.4526Z" fill="#BE11A5"/>
<path d="M76.5811 0.663288C79.8625 0.568551 83.0515 1.94224 85.3161 4.4054C89.984 9.56856 89.984 17.6212 85.3161 22.7843C83.0515 25.2475 79.8625 26.6212 76.5811 26.5264H66.5059V0.663288H76.5811ZM76.5811 22.4528C78.9844 22.4528 80.9717 21.6001 82.4506 19.9422C84.022 18.237 84.8539 15.9159 84.7615 13.5949C84.8539 11.2264 84.022 8.95277 82.4506 7.2475C80.9255 5.58961 78.7995 4.64224 76.5811 4.73698H70.7116V22.4528H76.5811Z" fill="#BE11A5"/>
<path d="M111.383 19.1369C111.429 21.1264 110.597 23.0685 109.164 24.3948C107.685 25.8159 105.744 26.5738 103.711 26.5264H92.7573V0.663229H102.925C104.866 0.61586 106.761 1.37376 108.24 2.70007C109.673 3.97902 110.458 5.87376 110.412 7.81586C110.505 9.90007 109.488 11.8896 107.824 13.0738C110.042 14.2106 111.429 16.579 111.383 19.1369ZM96.963 4.64218V11.4632H102.925C104.774 11.4632 106.253 9.94744 106.253 8.05271C106.253 6.15797 104.774 4.64218 102.925 4.64218H96.963ZM103.711 22.5001C105.652 22.4053 107.177 20.7474 107.085 18.758C107.038 16.8632 105.513 15.3474 103.711 15.3001H96.963V22.5474L103.711 22.5001Z" fill="#BE11A5"/>
<path d="M119.609 22.4526H130.932V26.5262H115.403V0.663086H130.747V4.73677H119.609V11.4631H129.869V15.4894H119.609V22.4526Z" fill="#BE11A5"/>
<path d="M149.28 26.5266L143.827 17.1002H138.882V26.5266H134.676V0.616038H144.936C147.108 0.568669 149.234 1.46867 150.759 3.07919C152.331 4.59498 153.209 6.72656 153.162 8.95288C153.116 12.2687 151.129 15.2529 148.079 16.4371L153.902 26.5266H149.28ZM138.882 4.64235V13.3108H144.89C147.201 13.216 149.003 11.1792 148.911 8.7634C148.818 6.53709 147.062 4.73709 144.89 4.64235H138.882Z" fill="#BE11A5"/>
<path d="M171.695 26.5266L166.288 17.1002H161.343V26.5266H157.137V0.616038H167.397C169.57 0.568669 171.695 1.46867 173.221 3.07919C174.792 4.59498 175.67 6.72656 175.624 8.95288C175.578 12.2687 173.59 15.2529 170.54 16.4371L176.363 26.5266H171.695ZM161.343 4.64235V13.3108H167.351C169.708 13.1687 171.464 11.1318 171.326 8.71603C171.187 6.53709 169.477 4.73709 167.351 4.64235H161.343Z" fill="#BE11A5"/>
<path d="M179.414 0.615723H183.619V26.5262H179.414V0.615723Z" fill="#BE11A5"/>
<path d="M192.77 22.4526H204.093V26.5262H188.564V0.663086H203.908V4.73677H192.77V11.4631H203.03V15.4894H192.77V22.4526Z" fill="#BE11A5"/>
<path d="M207.051 20.6526L210.702 18.521C211.719 21.4578 213.845 22.8789 217.034 22.8789C220.223 22.8789 221.794 21.5052 221.794 19.4684C221.841 18.521 221.332 17.5736 220.5 17.0999C219.668 16.5315 218.143 15.9157 215.971 15.2526C213.522 14.4947 212.32 14.021 210.61 12.8841C208.9 11.7473 208.114 9.99467 208.114 7.67362C208.022 5.58941 208.946 3.55256 210.518 2.22625C212.135 0.852563 214.215 0.142036 216.341 0.189404C220.177 0.0472988 223.689 2.32098 225.261 5.87361L221.748 7.91046C220.685 5.54204 218.883 4.31046 216.387 4.31046C213.891 4.31046 212.366 5.54204 212.366 7.53151C212.366 9.52098 213.614 10.3262 217.542 11.5578C218.513 11.8894 219.206 12.1262 219.668 12.3157C220.131 12.5052 220.778 12.742 221.563 13.0736C222.21 13.3105 222.857 13.6894 223.412 14.1157C224.752 15.2052 226.231 16.9578 226.046 19.421C226.139 21.5999 225.214 23.6368 223.551 25.0105C221.887 26.3841 219.715 27.0473 216.988 27.0473C211.95 26.9999 208.345 24.5841 207.051 20.6526Z" fill="#BE11A5"/>
</g>
<defs>
<clipPath id="clip0_215_23773">
<rect width="226" height="27" fill="white"/>
</clipPath>
</defs>
</svg>
