<svg width="32" height="32" viewBox="0 0 32 32" fill="none" xmlns="http://www.w3.org/2000/svg">
<path d="M8.94026 3.11419L8.20677 3.52168L14.2495 7.30318L16.9974 5.67729C16.9453 5.64471 16.8923 5.61337 16.8382 5.58332L12.3937 3.11419C11.3199 2.5176 10.0141 2.5176 8.94026 3.11419Z" fill="white"/>
<path d="M4.49582 5.58332L6.40396 4.52325C6.47969 4.71494 6.61516 4.88499 6.80328 5.00272L12.3116 8.44978L11.9296 8.67577L11.9243 8.67892C11.137 9.15132 10.1568 9.16506 9.35655 8.71491L4.16269 5.79328C4.26904 5.71772 4.38018 5.64757 4.49582 5.58332Z" fill="white"/>
<path d="M2.66699 8.69144C2.66699 8.23182 2.75569 7.78506 2.92084 7.37196C2.9654 7.40851 3.01375 7.44169 3.06572 7.47092L8.376 10.458C8.78517 10.6882 9.22073 10.8503 9.66699 10.9447L9.66699 18.3773L9.66706 18.3885C9.41704 18.3152 9.17319 18.2139 8.94026 18.0845L4.49582 15.6154C3.36705 14.9883 2.66699 13.7985 2.66699 12.5072V8.69144Z" fill="white"/>
<path d="M11.667 18.3773L11.667 10.9188C12.1127 10.8124 12.5459 10.638 12.9505 10.3956L12.9533 10.3939L18.2874 7.23789C18.3057 7.22706 18.3236 7.21574 18.3409 7.20395C18.5523 7.66276 18.667 8.16879 18.667 8.69144V12.5072C18.667 13.6616 18.1075 14.7348 17.1825 15.3974C17.2569 15.5033 17.3533 15.5964 17.4699 15.6694L22.9782 19.1165L22.5963 19.3424L22.591 19.3456C21.8037 19.818 20.8235 19.8317 20.0232 19.3816L15.0721 16.5965L12.3937 18.0845C12.1608 18.2139 11.9169 18.3152 11.6669 18.3885L11.667 18.3773Z" fill="white"/>
<path d="M19.6069 13.7809L18.8734 14.1883L24.9161 17.9698L27.6641 16.344C27.612 16.3114 27.5589 16.28 27.5048 16.25L23.0604 13.7809C21.9865 13.1843 20.6808 13.1843 19.6069 13.7809Z" fill="white"/>
<path d="M13.3337 19.3581C13.3337 18.8985 13.4224 18.4517 13.5875 18.0386C13.6321 18.0752 13.6804 18.1084 13.7324 18.1376L19.0427 21.1247C19.4518 21.3549 19.8874 21.517 20.3337 21.6113V29.0439L20.3337 29.0552C20.0837 28.9819 19.8399 28.8806 19.6069 28.7512L15.1625 26.282C14.0337 25.6549 13.3337 24.4652 13.3337 23.1739V19.3581Z" fill="white"/>
<path d="M22.3337 29.0439V21.5854C22.7794 21.4791 23.2126 21.3046 23.6172 21.0623L23.62 21.0606L28.9541 17.9046C28.9724 17.8937 28.9902 17.8824 29.0076 17.8706C29.219 18.3294 29.3337 18.8355 29.3337 19.3581V23.1739C29.3337 24.4652 28.6336 25.6549 27.5048 26.282L23.0604 28.7512C22.8275 28.8806 22.5836 28.9819 22.3336 29.0552L22.3337 29.0439Z" fill="white"/>
</svg>
