<svg width="16" height="17" viewBox="0 0 16 17" fill="none" xmlns="http://www.w3.org/2000/svg">
<path d="M5.90515 3.66371L6.70495 3.21937C7.51035 2.77193 8.48966 2.77193 9.29505 3.21937L12.6284 5.07122C12.75 5.13879 12.865 5.21508 12.9728 5.29905L10.6831 6.65375L5.90515 3.66371Z" fill="#323232"/>
<path d="M5.02404 4.15321L3.37162 5.07122C3.20458 5.16402 3.05007 5.27324 2.90963 5.39624C2.91035 5.39665 2.91108 5.39705 2.9118 5.39746L6.89452 7.6378C7.57298 8.01945 8.40404 8.0078 9.07154 7.60729L9.07418 7.60571L9.71417 7.22705L5.23476 4.42385C5.1307 4.35873 5.05887 4.26159 5.02404 4.15321Z" fill="#323232"/>
<path d="M2.30003 6.17341C2.10618 6.54668 2 6.9668 2 7.40231V10.2642C2 11.2326 2.52505 12.1249 3.37162 12.5952L6.70495 14.4471C6.958 14.5877 7.22822 14.6841 7.50482 14.7363C7.50164 14.7136 7.5 14.6903 7.5 14.6667V8.88299C7.12074 8.82776 6.74901 8.70331 6.40425 8.50937L2.42153 6.26903C2.37509 6.24291 2.33444 6.21048 2.30003 6.17341Z" fill="#323232"/>
<path d="M8.5 8.86917V14.6667C8.5 14.6903 8.49836 14.7136 8.49518 14.7363C8.77178 14.6841 9.042 14.5877 9.29505 14.4471L12.6284 12.5952C13.475 12.1249 14 11.2326 14 10.2642V7.40231C14 6.92308 13.8714 6.46249 13.639 6.06245C13.6229 6.07484 13.6059 6.08639 13.5879 6.09699L9.58605 8.46478L9.58466 8.46561C9.24549 8.66888 8.87747 8.80349 8.5 8.86917Z" fill="#323232"/>
</svg>
