<svg width="28" height="25" viewBox="0 0 28 25" fill="none" xmlns="http://www.w3.org/2000/svg">
<path d="M20.667 13.8333C22.0815 13.8333 23.438 14.3952 24.4382 15.3954C25.4384 16.3956 26.0003 17.7522 26.0003 19.1667C26.0003 20.5812 25.4384 21.9377 24.4382 22.9379C23.438 23.9381 22.0815 24.5 20.667 24.5C17.811 24.5 15.3337 22.1133 15.3337 19.1667H12.667C12.6665 20.4606 12.1956 21.7102 11.3421 22.6827C10.4885 23.6552 9.31059 24.2842 8.02766 24.4526C6.74474 24.621 5.44436 24.3172 4.36879 23.5979C3.29323 22.8786 2.51584 21.7928 2.18148 20.5428C1.84711 19.2928 1.97856 17.9639 2.55134 16.8037C3.12413 15.6434 4.09918 14.731 5.29482 14.2363C6.49047 13.7417 7.82516 13.6986 9.05023 14.1151C10.2753 14.5315 11.3072 15.3791 11.9537 16.5H16.047C16.515 15.6889 17.1884 15.0153 17.9994 14.5472C18.8105 14.0791 19.7305 13.8329 20.667 13.8333ZM0.666992 12.5V9.83333H3.33366V5.83333C3.33366 4.41885 3.89556 3.06229 4.89576 2.0621C5.89595 1.0619 7.2525 0.5 8.66699 0.5H19.3337C20.7481 0.5 22.1047 1.0619 23.1049 2.0621C24.1051 3.06229 24.667 4.41885 24.667 5.83333V9.83333H27.3337V12.5H0.666992Z" fill="#B5B5B5"/>
</svg>
